<?xml version="1.0" encoding="utf-8" standalone="no"?>
<!DOCTYPE svg PUBLIC "-//W3C//DTD SVG 1.1//EN"
  "http://www.w3.org/Graphics/SVG/1.1/DTD/svg11.dtd">
<svg xmlns:xlink="http://www.w3.org/1999/xlink" width="432pt" height="360pt" viewBox="0 0 432 360" xmlns="http://www.w3.org/2000/svg" version="1.1">
 <metadata>
  <rdf:RDF xmlns:dc="http://purl.org/dc/elements/1.1/" xmlns:cc="http://creativecommons.org/ns#" xmlns:rdf="http://www.w3.org/1999/02/22-rdf-syntax-ns#">
   <cc:Work>
    <dc:type rdf:resource="http://purl.org/dc/dcmitype/StillImage"/>
    <dc:date>2025-04-21T09:28:40.501416</dc:date>
    <dc:format>image/svg+xml</dc:format>
    <dc:creator>
     <cc:Agent>
      <dc:title>Matplotlib v3.10.1, https://matplotlib.org/</dc:title>
     </cc:Agent>
    </dc:creator>
   </cc:Work>
  </rdf:RDF>
 </metadata>
 <defs>
  <style type="text/css">*{stroke-linejoin: round; stroke-linecap: butt}</style>
 </defs>
 <g id="figure_1">
  <g id="patch_1">
   <path d="M 0 360 
L 432 360 
L 432 0 
L 0 0 
z
" style="fill: #ffffff"/>
  </g>
  <g id="axes_1">
   <g id="patch_2">
    <path d="M 53.03 318.04 
L 421.2 318.04 
L 421.2 25.44 
L 53.03 25.44 
z
" style="fill: #ffffff"/>
   </g>
   <g id="PathCollection_1">
    <defs>
     <path id="C0_0_91d7513aeb" d="M 0 2.236068 
C 0.593012 2.236068 1.161816 2.000462 1.581139 1.581139 
C 2.000462 1.161816 2.236068 0.593012 2.236068 -0 
C 2.236068 -0.593012 2.000462 -1.161816 1.581139 -1.581139 
C 1.161816 -2.000462 0.593012 -2.236068 0 -2.236068 
C -0.593012 -2.236068 -1.161816 -2.000462 -1.581139 -1.581139 
C -2.000462 -1.161816 -2.236068 -0.593012 -2.236068 0 
C -2.236068 0.593012 -2.000462 1.161816 -1.581139 1.581139 
C -1.161816 2.000462 -0.593012 2.236068 0 2.236068 
z
"/>
    </defs>
    <g clip-path="url(#p3b194dd23f)">
     <use xlink:href="#C0_0_91d7513aeb" x="348.658321" y="104.176319" style="fill: #1f77b4; stroke: #ffffff; stroke-width: 0.357771"/>
    </g>
    <g clip-path="url(#p3b194dd23f)">
     <use xlink:href="#C0_0_91d7513aeb" x="300.730486" y="64.419661" style="fill: #ff7f0e; stroke: #ffffff; stroke-width: 0.357771"/>
    </g>
    <g clip-path="url(#p3b194dd23f)">
     <use xlink:href="#C0_0_91d7513aeb" x="270.592182" y="115.903381" style="fill: #1f77b4; stroke: #ffffff; stroke-width: 0.357771"/>
    </g>
    <g clip-path="url(#p3b194dd23f)">
     <use xlink:href="#C0_0_91d7513aeb" x="237.521397" y="194.567833" style="fill: #2ca02c; stroke: #ffffff; stroke-width: 0.357771"/>
    </g>
    <g clip-path="url(#p3b194dd23f)">
     <use xlink:href="#C0_0_91d7513aeb" x="293.412648" y="180.172135" style="fill: #d62728; stroke: #ffffff; stroke-width: 0.357771"/>
    </g>
    <g clip-path="url(#p3b194dd23f)">
     <use xlink:href="#C0_0_91d7513aeb" x="207.399101" y="38.74" style="fill: #1f77b4; stroke: #ffffff; stroke-width: 0.357771"/>
    </g>
    <g clip-path="url(#p3b194dd23f)">
     <use xlink:href="#C0_0_91d7513aeb" x="348.956833" y="209.62157" style="fill: #1f77b4; stroke: #ffffff; stroke-width: 0.357771"/>
    </g>
    <g clip-path="url(#p3b194dd23f)">
     <use xlink:href="#C0_0_91d7513aeb" x="340.654842" y="243.921818" style="fill: #d62728; stroke: #ffffff; stroke-width: 0.357771"/>
    </g>
    <g clip-path="url(#p3b194dd23f)">
     <use xlink:href="#C0_0_91d7513aeb" x="304.44393" y="124.147649" style="fill: #d62728; stroke: #ffffff; stroke-width: 0.357771"/>
    </g>
    <g clip-path="url(#p3b194dd23f)">
     <use xlink:href="#C0_0_91d7513aeb" x="278.814354" y="99.375358" style="fill: #1f77b4; stroke: #ffffff; stroke-width: 0.357771"/>
    </g>
    <g clip-path="url(#p3b194dd23f)">
     <use xlink:href="#C0_0_91d7513aeb" x="259.136608" y="176.530193" style="fill: #1f77b4; stroke: #ffffff; stroke-width: 0.357771"/>
    </g>
    <g clip-path="url(#p3b194dd23f)">
     <use xlink:href="#C0_0_91d7513aeb" x="230.43599" y="156.846177" style="fill: #1f77b4; stroke: #ffffff; stroke-width: 0.357771"/>
    </g>
    <g clip-path="url(#p3b194dd23f)">
     <use xlink:href="#C0_0_91d7513aeb" x="361.580852" y="204.824216" style="fill: #1f77b4; stroke: #ffffff; stroke-width: 0.357771"/>
    </g>
    <g clip-path="url(#p3b194dd23f)">
     <use xlink:href="#C0_0_91d7513aeb" x="194.511686" y="158.273353" style="fill: #2ca02c; stroke: #ffffff; stroke-width: 0.357771"/>
    </g>
    <g clip-path="url(#p3b194dd23f)">
     <use xlink:href="#C0_0_91d7513aeb" x="237.476319" y="200.650675" style="fill: #d62728; stroke: #ffffff; stroke-width: 0.357771"/>
    </g>
    <g clip-path="url(#p3b194dd23f)">
     <use xlink:href="#C0_0_91d7513aeb" x="215.594813" y="226.977566" style="fill: #ff7f0e; stroke: #ffffff; stroke-width: 0.357771"/>
    </g>
    <g clip-path="url(#p3b194dd23f)">
     <use xlink:href="#C0_0_91d7513aeb" x="308.841831" y="192.976929" style="fill: #1f77b4; stroke: #ffffff; stroke-width: 0.357771"/>
    </g>
    <g clip-path="url(#p3b194dd23f)">
     <use xlink:href="#C0_0_91d7513aeb" x="381.841548" y="147.77417" style="fill: #d62728; stroke: #ffffff; stroke-width: 0.357771"/>
    </g>
    <g clip-path="url(#p3b194dd23f)">
     <use xlink:href="#C0_0_91d7513aeb" x="157.546132" y="199.577851" style="fill: #d62728; stroke: #ffffff; stroke-width: 0.357771"/>
    </g>
    <g clip-path="url(#p3b194dd23f)">
     <use xlink:href="#C0_0_91d7513aeb" x="342.298649" y="137.457343" style="fill: #d62728; stroke: #ffffff; stroke-width: 0.357771"/>
    </g>
    <g clip-path="url(#p3b194dd23f)">
     <use xlink:href="#C0_0_91d7513aeb" x="155.587076" y="245.54244" style="fill: #1f77b4; stroke: #ffffff; stroke-width: 0.357771"/>
    </g>
    <g clip-path="url(#p3b194dd23f)">
     <use xlink:href="#C0_0_91d7513aeb" x="295.871232" y="110.792563" style="fill: #2ca02c; stroke: #ffffff; stroke-width: 0.357771"/>
    </g>
    <g clip-path="url(#p3b194dd23f)">
     <use xlink:href="#C0_0_91d7513aeb" x="327.849665" y="183.518796" style="fill: #1f77b4; stroke: #ffffff; stroke-width: 0.357771"/>
    </g>
    <g clip-path="url(#p3b194dd23f)">
     <use xlink:href="#C0_0_91d7513aeb" x="224.104368" y="164.649314" style="fill: #2ca02c; stroke: #ffffff; stroke-width: 0.357771"/>
    </g>
    <g clip-path="url(#p3b194dd23f)">
     <use xlink:href="#C0_0_91d7513aeb" x="250.656418" y="278.437874" style="fill: #d62728; stroke: #ffffff; stroke-width: 0.357771"/>
    </g>
    <g clip-path="url(#p3b194dd23f)">
     <use xlink:href="#C0_0_91d7513aeb" x="258.206479" y="228.14894" style="fill: #ff7f0e; stroke: #ffffff; stroke-width: 0.357771"/>
    </g>
    <g clip-path="url(#p3b194dd23f)">
     <use xlink:href="#C0_0_91d7513aeb" x="188.012172" y="304.74" style="fill: #d62728; stroke: #ffffff; stroke-width: 0.357771"/>
    </g>
    <g clip-path="url(#p3b194dd23f)">
     <use xlink:href="#C0_0_91d7513aeb" x="258.655033" y="204.583343" style="fill: #ff7f0e; stroke: #ffffff; stroke-width: 0.357771"/>
    </g>
    <g clip-path="url(#p3b194dd23f)">
     <use xlink:href="#C0_0_91d7513aeb" x="353.097162" y="204.715487" style="fill: #d62728; stroke: #ffffff; stroke-width: 0.357771"/>
    </g>
    <g clip-path="url(#p3b194dd23f)">
     <use xlink:href="#C0_0_91d7513aeb" x="160.870682" y="236.071178" style="fill: #d62728; stroke: #ffffff; stroke-width: 0.357771"/>
    </g>
    <g clip-path="url(#p3b194dd23f)">
     <use xlink:href="#C0_0_91d7513aeb" x="289.337416" y="166.196351" style="fill: #ff7f0e; stroke: #ffffff; stroke-width: 0.357771"/>
    </g>
    <g clip-path="url(#p3b194dd23f)">
     <use xlink:href="#C0_0_91d7513aeb" x="298.287939" y="208.510027" style="fill: #ff7f0e; stroke: #ffffff; stroke-width: 0.357771"/>
    </g>
    <g clip-path="url(#p3b194dd23f)">
     <use xlink:href="#C0_0_91d7513aeb" x="307.499413" y="201.056534" style="fill: #d62728; stroke: #ffffff; stroke-width: 0.357771"/>
    </g>
    <g clip-path="url(#p3b194dd23f)">
     <use xlink:href="#C0_0_91d7513aeb" x="378.521629" y="217.445832" style="fill: #ff7f0e; stroke: #ffffff; stroke-width: 0.357771"/>
    </g>
    <g clip-path="url(#p3b194dd23f)">
     <use xlink:href="#C0_0_91d7513aeb" x="357.682634" y="141.885578" style="fill: #ff7f0e; stroke: #ffffff; stroke-width: 0.357771"/>
    </g>
    <g clip-path="url(#p3b194dd23f)">
     <use xlink:href="#C0_0_91d7513aeb" x="322.21255" y="192.303243" style="fill: #d62728; stroke: #ffffff; stroke-width: 0.357771"/>
    </g>
    <g clip-path="url(#p3b194dd23f)">
     <use xlink:href="#C0_0_91d7513aeb" x="345.073738" y="150.829707" style="fill: #2ca02c; stroke: #ffffff; stroke-width: 0.357771"/>
    </g>
    <g clip-path="url(#p3b194dd23f)">
     <use xlink:href="#C0_0_91d7513aeb" x="404.465" y="156.587177" style="fill: #d62728; stroke: #ffffff; stroke-width: 0.357771"/>
    </g>
    <g clip-path="url(#p3b194dd23f)">
     <use xlink:href="#C0_0_91d7513aeb" x="380.647284" y="216.478184" style="fill: #1f77b4; stroke: #ffffff; stroke-width: 0.357771"/>
    </g>
    <g clip-path="url(#p3b194dd23f)">
     <use xlink:href="#C0_0_91d7513aeb" x="318.684038" y="233.028487" style="fill: #ff7f0e; stroke: #ffffff; stroke-width: 0.357771"/>
    </g>
    <g clip-path="url(#p3b194dd23f)">
     <use xlink:href="#C0_0_91d7513aeb" x="69.765" y="73.714147" style="fill: #2ca02c; stroke: #ffffff; stroke-width: 0.357771"/>
    </g>
    <g clip-path="url(#p3b194dd23f)">
     <use xlink:href="#C0_0_91d7513aeb" x="328.667948" y="171.14279" style="fill: #d62728; stroke: #ffffff; stroke-width: 0.357771"/>
    </g>
    <g clip-path="url(#p3b194dd23f)">
     <use xlink:href="#C0_0_91d7513aeb" x="284.877225" y="119.951822" style="fill: #d62728; stroke: #ffffff; stroke-width: 0.357771"/>
    </g>
    <g clip-path="url(#p3b194dd23f)">
     <use xlink:href="#C0_0_91d7513aeb" x="202.005799" y="144.608678" style="fill: #ff7f0e; stroke: #ffffff; stroke-width: 0.357771"/>
    </g>
    <g clip-path="url(#p3b194dd23f)">
     <use xlink:href="#C0_0_91d7513aeb" x="302.393546" y="211.293491" style="fill: #ff7f0e; stroke: #ffffff; stroke-width: 0.357771"/>
    </g>
   </g>
   <g id="matplotlib.axis_1">
    <g id="xtick_1">
     <g id="line2d_1">
      <defs>
       <path id="m837f2f3a8b" d="M 0 0 
L 0 3.5 
" style="stroke: #000000; stroke-width: 0.8"/>
      </defs>
      <g>
       <use xlink:href="#m837f2f3a8b" x="87.490627" y="318.04" style="stroke: #000000; stroke-width: 0.8"/>
      </g>
     </g>
     <g id="text_1">
      <!-- −100 -->
      <g transform="translate(73.757033 332.638438) scale(0.1 -0.1)">
       <defs>
        <path id="DejaVuSans-2212" d="M 678 2272 
L 4684 2272 
L 4684 1741 
L 678 1741 
L 678 2272 
z
" transform="scale(0.015625)"/>
        <path id="DejaVuSans-31" d="M 794 531 
L 1825 531 
L 1825 4091 
L 703 3866 
L 703 4441 
L 1819 4666 
L 2450 4666 
L 2450 531 
L 3481 531 
L 3481 0 
L 794 0 
L 794 531 
z
" transform="scale(0.015625)"/>
        <path id="DejaVuSans-30" d="M 2034 4250 
Q 1547 4250 1301 3770 
Q 1056 3291 1056 2328 
Q 1056 1369 1301 889 
Q 1547 409 2034 409 
Q 2525 409 2770 889 
Q 3016 1369 3016 2328 
Q 3016 3291 2770 3770 
Q 2525 4250 2034 4250 
z
M 2034 4750 
Q 2819 4750 3233 4129 
Q 3647 3509 3647 2328 
Q 3647 1150 3233 529 
Q 2819 -91 2034 -91 
Q 1250 -91 836 529 
Q 422 1150 422 2328 
Q 422 3509 836 4129 
Q 1250 4750 2034 4750 
z
" transform="scale(0.015625)"/>
       </defs>
       <use xlink:href="#DejaVuSans-2212"/>
       <use xlink:href="#DejaVuSans-31" transform="translate(83.789062 0)"/>
       <use xlink:href="#DejaVuSans-30" transform="translate(147.412109 0)"/>
       <use xlink:href="#DejaVuSans-30" transform="translate(211.035156 0)"/>
      </g>
     </g>
    </g>
    <g id="xtick_2">
     <g id="line2d_2">
      <g>
       <use xlink:href="#m837f2f3a8b" x="136.081748" y="318.04" style="stroke: #000000; stroke-width: 0.8"/>
      </g>
     </g>
     <g id="text_2">
      <!-- −75 -->
      <g transform="translate(125.529404 332.638438) scale(0.1 -0.1)">
       <defs>
        <path id="DejaVuSans-37" d="M 525 4666 
L 3525 4666 
L 3525 4397 
L 1831 0 
L 1172 0 
L 2766 4134 
L 525 4134 
L 525 4666 
z
" transform="scale(0.015625)"/>
        <path id="DejaVuSans-35" d="M 691 4666 
L 3169 4666 
L 3169 4134 
L 1269 4134 
L 1269 2991 
Q 1406 3038 1543 3061 
Q 1681 3084 1819 3084 
Q 2600 3084 3056 2656 
Q 3513 2228 3513 1497 
Q 3513 744 3044 326 
Q 2575 -91 1722 -91 
Q 1428 -91 1123 -41 
Q 819 9 494 109 
L 494 744 
Q 775 591 1075 516 
Q 1375 441 1709 441 
Q 2250 441 2565 725 
Q 2881 1009 2881 1497 
Q 2881 1984 2565 2268 
Q 2250 2553 1709 2553 
Q 1456 2553 1204 2497 
Q 953 2441 691 2322 
L 691 4666 
z
" transform="scale(0.015625)"/>
       </defs>
       <use xlink:href="#DejaVuSans-2212"/>
       <use xlink:href="#DejaVuSans-37" transform="translate(83.789062 0)"/>
       <use xlink:href="#DejaVuSans-35" transform="translate(147.412109 0)"/>
      </g>
     </g>
    </g>
    <g id="xtick_3">
     <g id="line2d_3">
      <g>
       <use xlink:href="#m837f2f3a8b" x="184.672869" y="318.04" style="stroke: #000000; stroke-width: 0.8"/>
      </g>
     </g>
     <g id="text_3">
      <!-- −50 -->
      <g transform="translate(174.120525 332.638438) scale(0.1 -0.1)">
       <use xlink:href="#DejaVuSans-2212"/>
       <use xlink:href="#DejaVuSans-35" transform="translate(83.789062 0)"/>
       <use xlink:href="#DejaVuSans-30" transform="translate(147.412109 0)"/>
      </g>
     </g>
    </g>
    <g id="xtick_4">
     <g id="line2d_4">
      <g>
       <use xlink:href="#m837f2f3a8b" x="233.26399" y="318.04" style="stroke: #000000; stroke-width: 0.8"/>
      </g>
     </g>
     <g id="text_4">
      <!-- −25 -->
      <g transform="translate(222.711646 332.638438) scale(0.1 -0.1)">
       <defs>
        <path id="DejaVuSans-32" d="M 1228 531 
L 3431 531 
L 3431 0 
L 469 0 
L 469 531 
Q 828 903 1448 1529 
Q 2069 2156 2228 2338 
Q 2531 2678 2651 2914 
Q 2772 3150 2772 3378 
Q 2772 3750 2511 3984 
Q 2250 4219 1831 4219 
Q 1534 4219 1204 4116 
Q 875 4013 500 3803 
L 500 4441 
Q 881 4594 1212 4672 
Q 1544 4750 1819 4750 
Q 2544 4750 2975 4387 
Q 3406 4025 3406 3419 
Q 3406 3131 3298 2873 
Q 3191 2616 2906 2266 
Q 2828 2175 2409 1742 
Q 1991 1309 1228 531 
z
" transform="scale(0.015625)"/>
       </defs>
       <use xlink:href="#DejaVuSans-2212"/>
       <use xlink:href="#DejaVuSans-32" transform="translate(83.789062 0)"/>
       <use xlink:href="#DejaVuSans-35" transform="translate(147.412109 0)"/>
      </g>
     </g>
    </g>
    <g id="xtick_5">
     <g id="line2d_5">
      <g>
       <use xlink:href="#m837f2f3a8b" x="281.85511" y="318.04" style="stroke: #000000; stroke-width: 0.8"/>
      </g>
     </g>
     <g id="text_5">
      <!-- 0 -->
      <g transform="translate(278.67386 332.638438) scale(0.1 -0.1)">
       <use xlink:href="#DejaVuSans-30"/>
      </g>
     </g>
    </g>
    <g id="xtick_6">
     <g id="line2d_6">
      <g>
       <use xlink:href="#m837f2f3a8b" x="330.446231" y="318.04" style="stroke: #000000; stroke-width: 0.8"/>
      </g>
     </g>
     <g id="text_6">
      <!-- 25 -->
      <g transform="translate(324.083731 332.638438) scale(0.1 -0.1)">
       <use xlink:href="#DejaVuSans-32"/>
       <use xlink:href="#DejaVuSans-35" transform="translate(63.623047 0)"/>
      </g>
     </g>
    </g>
    <g id="xtick_7">
     <g id="line2d_7">
      <g>
       <use xlink:href="#m837f2f3a8b" x="379.037352" y="318.04" style="stroke: #000000; stroke-width: 0.8"/>
      </g>
     </g>
     <g id="text_7">
      <!-- 50 -->
      <g transform="translate(372.674852 332.638438) scale(0.1 -0.1)">
       <use xlink:href="#DejaVuSans-35"/>
       <use xlink:href="#DejaVuSans-30" transform="translate(63.623047 0)"/>
      </g>
     </g>
    </g>
    <g id="text_8">
     <!-- Dim1 -->
     <g transform="translate(223.824375 346.316563) scale(0.1 -0.1)">
      <defs>
       <path id="DejaVuSans-44" d="M 1259 4147 
L 1259 519 
L 2022 519 
Q 2988 519 3436 956 
Q 3884 1394 3884 2338 
Q 3884 3275 3436 3711 
Q 2988 4147 2022 4147 
L 1259 4147 
z
M 628 4666 
L 1925 4666 
Q 3281 4666 3915 4102 
Q 4550 3538 4550 2338 
Q 4550 1131 3912 565 
Q 3275 0 1925 0 
L 628 0 
L 628 4666 
z
" transform="scale(0.015625)"/>
       <path id="DejaVuSans-69" d="M 603 3500 
L 1178 3500 
L 1178 0 
L 603 0 
L 603 3500 
z
M 603 4863 
L 1178 4863 
L 1178 4134 
L 603 4134 
L 603 4863 
z
" transform="scale(0.015625)"/>
       <path id="DejaVuSans-6d" d="M 3328 2828 
Q 3544 3216 3844 3400 
Q 4144 3584 4550 3584 
Q 5097 3584 5394 3201 
Q 5691 2819 5691 2113 
L 5691 0 
L 5113 0 
L 5113 2094 
Q 5113 2597 4934 2840 
Q 4756 3084 4391 3084 
Q 3944 3084 3684 2787 
Q 3425 2491 3425 1978 
L 3425 0 
L 2847 0 
L 2847 2094 
Q 2847 2600 2669 2842 
Q 2491 3084 2119 3084 
Q 1678 3084 1418 2786 
Q 1159 2488 1159 1978 
L 1159 0 
L 581 0 
L 581 3500 
L 1159 3500 
L 1159 2956 
Q 1356 3278 1631 3431 
Q 1906 3584 2284 3584 
Q 2666 3584 2933 3390 
Q 3200 3197 3328 2828 
z
" transform="scale(0.015625)"/>
      </defs>
      <use xlink:href="#DejaVuSans-44"/>
      <use xlink:href="#DejaVuSans-69" transform="translate(77.001953 0)"/>
      <use xlink:href="#DejaVuSans-6d" transform="translate(104.785156 0)"/>
      <use xlink:href="#DejaVuSans-31" transform="translate(202.197266 0)"/>
     </g>
    </g>
   </g>
   <g id="matplotlib.axis_2">
    <g id="ytick_1">
     <g id="line2d_8">
      <defs>
       <path id="m8bc6140753" d="M 0 0 
L -3.5 0 
" style="stroke: #000000; stroke-width: 0.8"/>
      </defs>
      <g>
       <use xlink:href="#m8bc6140753" x="53.03" y="287.543208" style="stroke: #000000; stroke-width: 0.8"/>
      </g>
     </g>
     <g id="text_9">
      <!-- −60 -->
      <g transform="translate(24.925313 291.342427) scale(0.1 -0.1)">
       <defs>
        <path id="DejaVuSans-36" d="M 2113 2584 
Q 1688 2584 1439 2293 
Q 1191 2003 1191 1497 
Q 1191 994 1439 701 
Q 1688 409 2113 409 
Q 2538 409 2786 701 
Q 3034 994 3034 1497 
Q 3034 2003 2786 2293 
Q 2538 2584 2113 2584 
z
M 3366 4563 
L 3366 3988 
Q 3128 4100 2886 4159 
Q 2644 4219 2406 4219 
Q 1781 4219 1451 3797 
Q 1122 3375 1075 2522 
Q 1259 2794 1537 2939 
Q 1816 3084 2150 3084 
Q 2853 3084 3261 2657 
Q 3669 2231 3669 1497 
Q 3669 778 3244 343 
Q 2819 -91 2113 -91 
Q 1303 -91 875 529 
Q 447 1150 447 2328 
Q 447 3434 972 4092 
Q 1497 4750 2381 4750 
Q 2619 4750 2861 4703 
Q 3103 4656 3366 4563 
z
" transform="scale(0.015625)"/>
       </defs>
       <use xlink:href="#DejaVuSans-2212"/>
       <use xlink:href="#DejaVuSans-36" transform="translate(83.789062 0)"/>
       <use xlink:href="#DejaVuSans-30" transform="translate(147.412109 0)"/>
      </g>
     </g>
    </g>
    <g id="ytick_2">
     <g id="line2d_9">
      <g>
       <use xlink:href="#m8bc6140753" x="53.03" y="250.53374" style="stroke: #000000; stroke-width: 0.8"/>
      </g>
     </g>
     <g id="text_10">
      <!-- −40 -->
      <g transform="translate(24.925313 254.332959) scale(0.1 -0.1)">
       <defs>
        <path id="DejaVuSans-34" d="M 2419 4116 
L 825 1625 
L 2419 1625 
L 2419 4116 
z
M 2253 4666 
L 3047 4666 
L 3047 1625 
L 3713 1625 
L 3713 1100 
L 3047 1100 
L 3047 0 
L 2419 0 
L 2419 1100 
L 313 1100 
L 313 1709 
L 2253 4666 
z
" transform="scale(0.015625)"/>
       </defs>
       <use xlink:href="#DejaVuSans-2212"/>
       <use xlink:href="#DejaVuSans-34" transform="translate(83.789062 0)"/>
       <use xlink:href="#DejaVuSans-30" transform="translate(147.412109 0)"/>
      </g>
     </g>
    </g>
    <g id="ytick_3">
     <g id="line2d_10">
      <g>
       <use xlink:href="#m8bc6140753" x="53.03" y="213.524272" style="stroke: #000000; stroke-width: 0.8"/>
      </g>
     </g>
     <g id="text_11">
      <!-- −20 -->
      <g transform="translate(24.925313 217.323491) scale(0.1 -0.1)">
       <use xlink:href="#DejaVuSans-2212"/>
       <use xlink:href="#DejaVuSans-32" transform="translate(83.789062 0)"/>
       <use xlink:href="#DejaVuSans-30" transform="translate(147.412109 0)"/>
      </g>
     </g>
    </g>
    <g id="ytick_4">
     <g id="line2d_11">
      <g>
       <use xlink:href="#m8bc6140753" x="53.03" y="176.514804" style="stroke: #000000; stroke-width: 0.8"/>
      </g>
     </g>
     <g id="text_12">
      <!-- 0 -->
      <g transform="translate(39.6675 180.314023) scale(0.1 -0.1)">
       <use xlink:href="#DejaVuSans-30"/>
      </g>
     </g>
    </g>
    <g id="ytick_5">
     <g id="line2d_12">
      <g>
       <use xlink:href="#m8bc6140753" x="53.03" y="139.505336" style="stroke: #000000; stroke-width: 0.8"/>
      </g>
     </g>
     <g id="text_13">
      <!-- 20 -->
      <g transform="translate(33.305 143.304555) scale(0.1 -0.1)">
       <use xlink:href="#DejaVuSans-32"/>
       <use xlink:href="#DejaVuSans-30" transform="translate(63.623047 0)"/>
      </g>
     </g>
    </g>
    <g id="ytick_6">
     <g id="line2d_13">
      <g>
       <use xlink:href="#m8bc6140753" x="53.03" y="102.495868" style="stroke: #000000; stroke-width: 0.8"/>
      </g>
     </g>
     <g id="text_14">
      <!-- 40 -->
      <g transform="translate(33.305 106.295086) scale(0.1 -0.1)">
       <use xlink:href="#DejaVuSans-34"/>
       <use xlink:href="#DejaVuSans-30" transform="translate(63.623047 0)"/>
      </g>
     </g>
    </g>
    <g id="ytick_7">
     <g id="line2d_14">
      <g>
       <use xlink:href="#m8bc6140753" x="53.03" y="65.4864" style="stroke: #000000; stroke-width: 0.8"/>
      </g>
     </g>
     <g id="text_15">
      <!-- 60 -->
      <g transform="translate(33.305 69.285618) scale(0.1 -0.1)">
       <use xlink:href="#DejaVuSans-36"/>
       <use xlink:href="#DejaVuSans-30" transform="translate(63.623047 0)"/>
      </g>
     </g>
    </g>
    <g id="ytick_8">
     <g id="line2d_15">
      <g>
       <use xlink:href="#m8bc6140753" x="53.03" y="28.476931" style="stroke: #000000; stroke-width: 0.8"/>
      </g>
     </g>
     <g id="text_16">
      <!-- 80 -->
      <g transform="translate(33.305 32.27615) scale(0.1 -0.1)">
       <defs>
        <path id="DejaVuSans-38" d="M 2034 2216 
Q 1584 2216 1326 1975 
Q 1069 1734 1069 1313 
Q 1069 891 1326 650 
Q 1584 409 2034 409 
Q 2484 409 2743 651 
Q 3003 894 3003 1313 
Q 3003 1734 2745 1975 
Q 2488 2216 2034 2216 
z
M 1403 2484 
Q 997 2584 770 2862 
Q 544 3141 544 3541 
Q 544 4100 942 4425 
Q 1341 4750 2034 4750 
Q 2731 4750 3128 4425 
Q 3525 4100 3525 3541 
Q 3525 3141 3298 2862 
Q 3072 2584 2669 2484 
Q 3125 2378 3379 2068 
Q 3634 1759 3634 1313 
Q 3634 634 3220 271 
Q 2806 -91 2034 -91 
Q 1263 -91 848 271 
Q 434 634 434 1313 
Q 434 1759 690 2068 
Q 947 2378 1403 2484 
z
M 1172 3481 
Q 1172 3119 1398 2916 
Q 1625 2713 2034 2713 
Q 2441 2713 2670 2916 
Q 2900 3119 2900 3481 
Q 2900 3844 2670 4047 
Q 2441 4250 2034 4250 
Q 1625 4250 1398 4047 
Q 1172 3844 1172 3481 
z
" transform="scale(0.015625)"/>
       </defs>
       <use xlink:href="#DejaVuSans-38"/>
       <use xlink:href="#DejaVuSans-30" transform="translate(63.623047 0)"/>
      </g>
     </g>
    </g>
    <g id="text_17">
     <!-- Dim2 -->
     <g transform="translate(18.845625 185.030625) rotate(-90) scale(0.1 -0.1)">
      <use xlink:href="#DejaVuSans-44"/>
      <use xlink:href="#DejaVuSans-69" transform="translate(77.001953 0)"/>
      <use xlink:href="#DejaVuSans-6d" transform="translate(104.785156 0)"/>
      <use xlink:href="#DejaVuSans-32" transform="translate(202.197266 0)"/>
     </g>
    </g>
   </g>
   <g id="line2d_16"/>
   <g id="line2d_17"/>
   <g id="line2d_18"/>
   <g id="line2d_19"/>
   <g id="patch_3">
    <path d="M 53.03 318.04 
L 53.03 25.44 
" style="fill: none; stroke: #000000; stroke-width: 0.8; stroke-linejoin: miter; stroke-linecap: square"/>
   </g>
   <g id="patch_4">
    <path d="M 421.2 318.04 
L 421.2 25.44 
" style="fill: none; stroke: #000000; stroke-width: 0.8; stroke-linejoin: miter; stroke-linecap: square"/>
   </g>
   <g id="patch_5">
    <path d="M 53.03 318.04 
L 421.2 318.04 
" style="fill: none; stroke: #000000; stroke-width: 0.8; stroke-linejoin: miter; stroke-linecap: square"/>
   </g>
   <g id="patch_6">
    <path d="M 53.03 25.44 
L 421.2 25.44 
" style="fill: none; stroke: #000000; stroke-width: 0.8; stroke-linejoin: miter; stroke-linecap: square"/>
   </g>
   <g id="text_18">
    <!-- RAW PCA -->
    <g transform="translate(209.660312 19.44) scale(0.12 -0.12)">
     <defs>
      <path id="DejaVuSans-52" d="M 2841 2188 
Q 3044 2119 3236 1894 
Q 3428 1669 3622 1275 
L 4263 0 
L 3584 0 
L 2988 1197 
Q 2756 1666 2539 1819 
Q 2322 1972 1947 1972 
L 1259 1972 
L 1259 0 
L 628 0 
L 628 4666 
L 2053 4666 
Q 2853 4666 3247 4331 
Q 3641 3997 3641 3322 
Q 3641 2881 3436 2590 
Q 3231 2300 2841 2188 
z
M 1259 4147 
L 1259 2491 
L 2053 2491 
Q 2509 2491 2742 2702 
Q 2975 2913 2975 3322 
Q 2975 3731 2742 3939 
Q 2509 4147 2053 4147 
L 1259 4147 
z
" transform="scale(0.015625)"/>
      <path id="DejaVuSans-41" d="M 2188 4044 
L 1331 1722 
L 3047 1722 
L 2188 4044 
z
M 1831 4666 
L 2547 4666 
L 4325 0 
L 3669 0 
L 3244 1197 
L 1141 1197 
L 716 0 
L 50 0 
L 1831 4666 
z
" transform="scale(0.015625)"/>
      <path id="DejaVuSans-57" d="M 213 4666 
L 850 4666 
L 1831 722 
L 2809 4666 
L 3519 4666 
L 4500 722 
L 5478 4666 
L 6119 4666 
L 4947 0 
L 4153 0 
L 3169 4050 
L 2175 0 
L 1381 0 
L 213 4666 
z
" transform="scale(0.015625)"/>
      <path id="DejaVuSans-20" transform="scale(0.015625)"/>
      <path id="DejaVuSans-50" d="M 1259 4147 
L 1259 2394 
L 2053 2394 
Q 2494 2394 2734 2622 
Q 2975 2850 2975 3272 
Q 2975 3691 2734 3919 
Q 2494 4147 2053 4147 
L 1259 4147 
z
M 628 4666 
L 2053 4666 
Q 2838 4666 3239 4311 
Q 3641 3956 3641 3272 
Q 3641 2581 3239 2228 
Q 2838 1875 2053 1875 
L 1259 1875 
L 1259 0 
L 628 0 
L 628 4666 
z
" transform="scale(0.015625)"/>
      <path id="DejaVuSans-43" d="M 4122 4306 
L 4122 3641 
Q 3803 3938 3442 4084 
Q 3081 4231 2675 4231 
Q 1875 4231 1450 3742 
Q 1025 3253 1025 2328 
Q 1025 1406 1450 917 
Q 1875 428 2675 428 
Q 3081 428 3442 575 
Q 3803 722 4122 1019 
L 4122 359 
Q 3791 134 3420 21 
Q 3050 -91 2638 -91 
Q 1578 -91 968 557 
Q 359 1206 359 2328 
Q 359 3453 968 4101 
Q 1578 4750 2638 4750 
Q 3056 4750 3426 4639 
Q 3797 4528 4122 4306 
z
" transform="scale(0.015625)"/>
     </defs>
     <use xlink:href="#DejaVuSans-52"/>
     <use xlink:href="#DejaVuSans-41" transform="translate(65.482422 0)"/>
     <use xlink:href="#DejaVuSans-57" transform="translate(128.390625 0)"/>
     <use xlink:href="#DejaVuSans-20" transform="translate(227.267578 0)"/>
     <use xlink:href="#DejaVuSans-50" transform="translate(259.054688 0)"/>
     <use xlink:href="#DejaVuSans-43" transform="translate(319.357422 0)"/>
     <use xlink:href="#DejaVuSans-41" transform="translate(389.181641 0)"/>
    </g>
   </g>
   <g id="legend_1">
    <g id="patch_7">
     <path d="M 360.120313 107.10875 
L 414.2 107.10875 
Q 416.2 107.10875 416.2 105.10875 
L 416.2 32.44 
Q 416.2 30.44 414.2 30.44 
L 360.120313 30.44 
Q 358.120313 30.44 358.120313 32.44 
L 358.120313 105.10875 
Q 358.120313 107.10875 360.120313 107.10875 
z
" style="fill: #ffffff; opacity: 0.8; stroke: #cccccc; stroke-linejoin: miter"/>
    </g>
    <g id="text_19">
     <!-- mgs_level -->
     <g transform="translate(362.120313 42.038437) scale(0.1 -0.1)">
      <defs>
       <path id="DejaVuSans-67" d="M 2906 1791 
Q 2906 2416 2648 2759 
Q 2391 3103 1925 3103 
Q 1463 3103 1205 2759 
Q 947 2416 947 1791 
Q 947 1169 1205 825 
Q 1463 481 1925 481 
Q 2391 481 2648 825 
Q 2906 1169 2906 1791 
z
M 3481 434 
Q 3481 -459 3084 -895 
Q 2688 -1331 1869 -1331 
Q 1566 -1331 1297 -1286 
Q 1028 -1241 775 -1147 
L 775 -588 
Q 1028 -725 1275 -790 
Q 1522 -856 1778 -856 
Q 2344 -856 2625 -561 
Q 2906 -266 2906 331 
L 2906 616 
Q 2728 306 2450 153 
Q 2172 0 1784 0 
Q 1141 0 747 490 
Q 353 981 353 1791 
Q 353 2603 747 3093 
Q 1141 3584 1784 3584 
Q 2172 3584 2450 3431 
Q 2728 3278 2906 2969 
L 2906 3500 
L 3481 3500 
L 3481 434 
z
" transform="scale(0.015625)"/>
       <path id="DejaVuSans-73" d="M 2834 3397 
L 2834 2853 
Q 2591 2978 2328 3040 
Q 2066 3103 1784 3103 
Q 1356 3103 1142 2972 
Q 928 2841 928 2578 
Q 928 2378 1081 2264 
Q 1234 2150 1697 2047 
L 1894 2003 
Q 2506 1872 2764 1633 
Q 3022 1394 3022 966 
Q 3022 478 2636 193 
Q 2250 -91 1575 -91 
Q 1294 -91 989 -36 
Q 684 19 347 128 
L 347 722 
Q 666 556 975 473 
Q 1284 391 1588 391 
Q 1994 391 2212 530 
Q 2431 669 2431 922 
Q 2431 1156 2273 1281 
Q 2116 1406 1581 1522 
L 1381 1569 
Q 847 1681 609 1914 
Q 372 2147 372 2553 
Q 372 3047 722 3315 
Q 1072 3584 1716 3584 
Q 2034 3584 2315 3537 
Q 2597 3491 2834 3397 
z
" transform="scale(0.015625)"/>
       <path id="DejaVuSans-5f" d="M 3263 -1063 
L 3263 -1509 
L -63 -1509 
L -63 -1063 
L 3263 -1063 
z
" transform="scale(0.015625)"/>
       <path id="DejaVuSans-6c" d="M 603 4863 
L 1178 4863 
L 1178 0 
L 603 0 
L 603 4863 
z
" transform="scale(0.015625)"/>
       <path id="DejaVuSans-65" d="M 3597 1894 
L 3597 1613 
L 953 1613 
Q 991 1019 1311 708 
Q 1631 397 2203 397 
Q 2534 397 2845 478 
Q 3156 559 3463 722 
L 3463 178 
Q 3153 47 2828 -22 
Q 2503 -91 2169 -91 
Q 1331 -91 842 396 
Q 353 884 353 1716 
Q 353 2575 817 3079 
Q 1281 3584 2069 3584 
Q 2775 3584 3186 3129 
Q 3597 2675 3597 1894 
z
M 3022 2063 
Q 3016 2534 2758 2815 
Q 2500 3097 2075 3097 
Q 1594 3097 1305 2825 
Q 1016 2553 972 2059 
L 3022 2063 
z
" transform="scale(0.015625)"/>
       <path id="DejaVuSans-76" d="M 191 3500 
L 800 3500 
L 1894 563 
L 2988 3500 
L 3597 3500 
L 2284 0 
L 1503 0 
L 191 3500 
z
" transform="scale(0.015625)"/>
      </defs>
      <use xlink:href="#DejaVuSans-6d"/>
      <use xlink:href="#DejaVuSans-67" transform="translate(97.412109 0)"/>
      <use xlink:href="#DejaVuSans-73" transform="translate(160.888672 0)"/>
      <use xlink:href="#DejaVuSans-5f" transform="translate(212.988281 0)"/>
      <use xlink:href="#DejaVuSans-6c" transform="translate(262.988281 0)"/>
      <use xlink:href="#DejaVuSans-65" transform="translate(290.771484 0)"/>
      <use xlink:href="#DejaVuSans-76" transform="translate(352.294922 0)"/>
      <use xlink:href="#DejaVuSans-65" transform="translate(411.474609 0)"/>
      <use xlink:href="#DejaVuSans-6c" transform="translate(472.998047 0)"/>
     </g>
    </g>
    <g id="line2d_20">
     <defs>
      <path id="m8e0edd8e8c" d="M 0 2.236068 
C 0.593012 2.236068 1.161816 2.000462 1.581139 1.581139 
C 2.000462 1.161816 2.236068 0.593012 2.236068 0 
C 2.236068 -0.593012 2.000462 -1.161816 1.581139 -1.581139 
C 1.161816 -2.000462 0.593012 -2.236068 0 -2.236068 
C -0.593012 -2.236068 -1.161816 -2.000462 -1.581139 -1.581139 
C -2.000462 -1.161816 -2.236068 -0.593012 -2.236068 0 
C -2.236068 0.593012 -2.000462 1.161816 -1.581139 1.581139 
C -1.161816 2.000462 -0.593012 2.236068 0 2.236068 
z
" style="stroke: #ffffff; stroke-width: 0.357771"/>
     </defs>
     <g>
      <use xlink:href="#m8e0edd8e8c" x="379.978906" y="53.494687" style="fill: #1f77b4; stroke: #ffffff; stroke-width: 0.357771"/>
     </g>
    </g>
    <g id="text_20">
     <!-- 1 -->
     <g transform="translate(397.978906 56.994687) scale(0.1 -0.1)">
      <use xlink:href="#DejaVuSans-31"/>
     </g>
    </g>
    <g id="line2d_21">
     <defs>
      <path id="m0a2b715bde" d="M 0 2.236068 
C 0.593012 2.236068 1.161816 2.000462 1.581139 1.581139 
C 2.000462 1.161816 2.236068 0.593012 2.236068 0 
C 2.236068 -0.593012 2.000462 -1.161816 1.581139 -1.581139 
C 1.161816 -2.000462 0.593012 -2.236068 0 -2.236068 
C -0.593012 -2.236068 -1.161816 -2.000462 -1.581139 -1.581139 
C -2.000462 -1.161816 -2.236068 -0.593012 -2.236068 0 
C -2.236068 0.593012 -2.000462 1.161816 -1.581139 1.581139 
C -1.161816 2.000462 -0.593012 2.236068 0 2.236068 
z
" style="stroke: #ffffff; stroke-width: 0.357771"/>
     </defs>
     <g>
      <use xlink:href="#m0a2b715bde" x="379.978906" y="68.172813" style="fill: #ff7f0e; stroke: #ffffff; stroke-width: 0.357771"/>
     </g>
    </g>
    <g id="text_21">
     <!-- 3 -->
     <g transform="translate(397.978906 71.672813) scale(0.1 -0.1)">
      <defs>
       <path id="DejaVuSans-33" d="M 2597 2516 
Q 3050 2419 3304 2112 
Q 3559 1806 3559 1356 
Q 3559 666 3084 287 
Q 2609 -91 1734 -91 
Q 1441 -91 1130 -33 
Q 819 25 488 141 
L 488 750 
Q 750 597 1062 519 
Q 1375 441 1716 441 
Q 2309 441 2620 675 
Q 2931 909 2931 1356 
Q 2931 1769 2642 2001 
Q 2353 2234 1838 2234 
L 1294 2234 
L 1294 2753 
L 1863 2753 
Q 2328 2753 2575 2939 
Q 2822 3125 2822 3475 
Q 2822 3834 2567 4026 
Q 2313 4219 1838 4219 
Q 1578 4219 1281 4162 
Q 984 4106 628 3988 
L 628 4550 
Q 988 4650 1302 4700 
Q 1616 4750 1894 4750 
Q 2613 4750 3031 4423 
Q 3450 4097 3450 3541 
Q 3450 3153 3228 2886 
Q 3006 2619 2597 2516 
z
" transform="scale(0.015625)"/>
      </defs>
      <use xlink:href="#DejaVuSans-33"/>
     </g>
    </g>
    <g id="line2d_22">
     <defs>
      <path id="m57eb205c4c" d="M 0 2.236068 
C 0.593012 2.236068 1.161816 2.000462 1.581139 1.581139 
C 2.000462 1.161816 2.236068 0.593012 2.236068 0 
C 2.236068 -0.593012 2.000462 -1.161816 1.581139 -1.581139 
C 1.161816 -2.000462 0.593012 -2.236068 0 -2.236068 
C -0.593012 -2.236068 -1.161816 -2.000462 -1.581139 -1.581139 
C -2.000462 -1.161816 -2.236068 -0.593012 -2.236068 0 
C -2.236068 0.593012 -2.000462 1.161816 -1.581139 1.581139 
C -1.161816 2.000462 -0.593012 2.236068 0 2.236068 
z
" style="stroke: #ffffff; stroke-width: 0.357771"/>
     </defs>
     <g>
      <use xlink:href="#m57eb205c4c" x="379.978906" y="82.850937" style="fill: #2ca02c; stroke: #ffffff; stroke-width: 0.357771"/>
     </g>
    </g>
    <g id="text_22">
     <!-- 4 -->
     <g transform="translate(397.978906 86.350937) scale(0.1 -0.1)">
      <use xlink:href="#DejaVuSans-34"/>
     </g>
    </g>
    <g id="line2d_23">
     <defs>
      <path id="ma7dc508dbc" d="M 0 2.236068 
C 0.593012 2.236068 1.161816 2.000462 1.581139 1.581139 
C 2.000462 1.161816 2.236068 0.593012 2.236068 0 
C 2.236068 -0.593012 2.000462 -1.161816 1.581139 -1.581139 
C 1.161816 -2.000462 0.593012 -2.236068 0 -2.236068 
C -0.593012 -2.236068 -1.161816 -2.000462 -1.581139 -1.581139 
C -2.000462 -1.161816 -2.236068 -0.593012 -2.236068 0 
C -2.236068 0.593012 -2.000462 1.161816 -1.581139 1.581139 
C -1.161816 2.000462 -0.593012 2.236068 0 2.236068 
z
" style="stroke: #ffffff; stroke-width: 0.357771"/>
     </defs>
     <g>
      <use xlink:href="#ma7dc508dbc" x="379.978906" y="97.529063" style="fill: #d62728; stroke: #ffffff; stroke-width: 0.357771"/>
     </g>
    </g>
    <g id="text_23">
     <!-- 2 -->
     <g transform="translate(397.978906 101.029063) scale(0.1 -0.1)">
      <use xlink:href="#DejaVuSans-32"/>
     </g>
    </g>
   </g>
  </g>
 </g>
 <defs>
  <clipPath id="p3b194dd23f">
   <rect x="53.03" y="25.44" width="368.17" height="292.6"/>
  </clipPath>
 </defs>
</svg>
